<?xml version="1.0" encoding="UTF-8"?>
<svg width="256" height="256" viewBox="0 0 256 256" xmlns="http://www.w3.org/2000/svg">
  <defs>
    <linearGradient id="gradient" x1="0%" y1="0%" x2="100%" y2="100%">
      <stop offset="0%" style="stop-color:#4F46E5;stop-opacity:1" />
      <stop offset="100%" style="stop-color:#7C3AED;stop-opacity:1" />
    </linearGradient>
    <filter id="shadow" x="-20%" y="-20%" width="140%" height="140%">
      <feDropShadow dx="0" dy="4" stdDeviation="8" flood-color="#000000" flood-opacity="0.25"/>
    </filter>
  </defs>
  
  <!-- Background Circle -->
  <circle cx="128" cy="128" r="120" fill="url(#gradient)" filter="url(#shadow)"/>
  
  <!-- Shield Shape -->
  <path d="M128 40 L180 70 L180 140 Q180 160 128 200 Q76 160 76 140 L76 70 Z" 
        fill="white" opacity="0.9"/>
  
  <!-- Checkmark -->
  <path d="M100 120 L118 138 L156 100" 
        stroke="#4F46E5" stroke-width="8" stroke-linecap="round" stroke-linejoin="round" fill="none"/>
  
  <!-- Network Nodes -->
  <circle cx="90" cy="90" r="6" fill="#4F46E5"/>
  <circle cx="166" cy="90" r="6" fill="#4F46E5"/>
  <circle cx="90" cy="166" r="6" fill="#4F46E5"/>
  <circle cx="166" cy="166" r="6" fill="#4F46E5"/>
  
  <!-- Connection Lines -->
  <line x1="90" y1="90" x2="128" y2="128" stroke="#4F46E5" stroke-width="2" opacity="0.6"/>
  <line x1="166" y1="90" x2="128" y2="128" stroke="#4F46E5" stroke-width="2" opacity="0.6"/>
  <line x1="90" y1="166" x2="128" y2="128" stroke="#4F46E5" stroke-width="2" opacity="0.6"/>
  <line x1="166" y1="166" x2="128" y2="128" stroke="#4F46E5" stroke-width="2" opacity="0.6"/>
  
  <!-- TOPAY Text -->
  <text x="128" y="230" text-anchor="middle" font-family="Arial, sans-serif" font-size="18" font-weight="bold" fill="white">TOPAY</text>
</svg>